<svg width="400" height="300" viewBox="0 0 400 300" fill="none" xmlns="http://www.w3.org/2000/svg">
  <rect width="400" height="300" fill="#1a1a1a"/>
  
  <!-- Grid pattern -->
  <defs>
    <pattern id="grid" width="20" height="20" patternUnits="userSpaceOnUse">
      <path d="M 20 0 L 0 0 0 20" fill="none" stroke="#333" stroke-width="1" opacity="0.3"/>
    </pattern>
  </defs>
  <rect width="400" height="300" fill="url(#grid)"/>
  
  <!-- Center icon -->
  <g transform="translate(200, 150)">
    <!-- Icon background -->
    <circle cx="0" cy="0" r="40" fill="#333" opacity="0.5"/>
    
    <!-- Play icon for video projects -->
    <path d="M-15 -20 L-15 20 L25 0 Z" fill="#666" opacity="0.7"/>
    
    <!-- Camera icon for photography -->
    <g opacity="0.3">
      <rect x="-12" y="-8" width="24" height="16" rx="2" fill="#666"/>
      <circle cx="0" cy="0" r="6" fill="#666"/>
      <rect x="8" y="-4" width="4" height="8" rx="1" fill="#666"/>
    </g>
    
    <!-- Code icon for web projects -->
    <g opacity="0.3">
      <path d="M-20 -15 L-10 -5 L-20 5" stroke="#666" stroke-width="2" fill="none"/>
      <path d="M20 -15 L10 -5 L20 5" stroke="#666" stroke-width="2" fill="none"/>
      <path d="M-5 -20 L5 -10 L-5 0 L5 10 L-5 20" stroke="#666" stroke-width="2" fill="none"/>
    </g>
  </g>
  
  <!-- Subtle gradient overlay -->
  <defs>
    <linearGradient id="overlay" x1="0%" y1="0%" x2="100%" y2="100%">
      <stop offset="0%" stop-color="#000" stop-opacity="0.1"/>
      <stop offset="100%" stop-color="#000" stop-opacity="0.3"/>
    </linearGradient>
  </defs>
  <rect width="400" height="300" fill="url(#overlay)"/>
</svg>